<?xml version="1.0" standalone="no"?>
<!DOCTYPE svg PUBLIC "-//W3C//DTD SVG 20010904//EN"
 "http://www.w3.org/TR/2001/REC-SVG-20010904/DTD/svg10.dtd">
<svg version="1.0" xmlns="http://www.w3.org/2000/svg"
 width="512.000000pt" height="512.000000pt" viewBox="0 0 512.000000 512.000000"
 preserveAspectRatio="xMidYMid meet">

<g transform="translate(0.000000,512.000000) scale(0.100000,-0.100000)"
fill="#000000" stroke="none">
<path d="M1885 4854 c-11 -2 -51 -12 -89 -20 -169 -39 -319 -127 -449 -264
-147 -155 -228 -338 -250 -562 l-11 -117 -30 -6 c-280 -56 -529 -255 -652
-519 -61 -132 -79 -222 -78 -386 1 -169 19 -253 84 -389 111 -230 307 -404
546 -481 127 -41 221 -50 506 -50 l248 0 0 -405 c0 -378 -1 -408 -19 -443 -22
-42 -43 -63 -88 -86 -27 -14 -75 -16 -326 -16 l-294 0 -32 65 c-35 70 -87 121
-160 157 -65 32 -205 33 -273 1 -66 -30 -133 -96 -165 -162 -24 -48 -28 -68
-28 -141 0 -71 4 -94 26 -141 75 -159 251 -233 419 -175 70 25 168 119 195
188 l17 47 317 3 316 3 55 26 c70 33 136 99 169 169 l26 55 3 428 3 427 294 0
295 0 0 -503 0 -503 -53 -22 c-173 -72 -250 -285 -166 -458 26 -54 106 -129
167 -157 72 -32 189 -30 263 4 76 36 133 90 166 157 24 50 28 69 28 147 0 71
-5 100 -22 137 -37 82 -108 146 -195 177 l-28 11 0 505 0 505 315 0 314 0 3
-427 3 -428 26 -55 c33 -70 99 -136 169 -169 l55 -26 316 -3 316 -3 16 -40
c38 -97 126 -175 231 -205 151 -42 315 36 385 185 35 75 37 201 4 273 -30 66
-96 133 -162 165 -49 24 -68 28 -146 28 -73 0 -99 -4 -136 -23 -73 -36 -125
-87 -160 -157 l-32 -65 -294 0 c-251 0 -299 2 -326 16 -45 23 -66 44 -88 86
-18 35 -19 65 -19 443 l0 405 233 0 c349 0 482 21 653 105 310 150 494 453
495 811 0 216 -52 388 -166 549 -47 66 -137 158 -201 205 -126 91 -358 170
-506 170 -36 0 -38 1 -38 33 0 19 -9 69 -20 113 -59 233 -237 422 -478 508
-81 28 -96 30 -227 31 -127 0 -147 -3 -216 -27 -42 -15 -98 -40 -126 -56 l-49
-29 -54 66 c-77 91 -168 162 -285 221 -136 69 -228 91 -390 96 -71 1 -139 1
-150 -2z m279 -168 c195 -38 363 -149 476 -317 24 -35 51 -69 59 -76 27 -21
67 -14 107 18 93 74 223 119 346 119 94 0 160 -16 255 -61 187 -89 312 -288
313 -496 0 -74 14 -108 49 -122 14 -5 80 -11 146 -14 102 -3 133 -8 208 -34
124 -44 189 -85 293 -188 77 -77 98 -105 138 -185 66 -135 81 -200 81 -350 0
-102 -5 -139 -24 -200 -69 -223 -213 -392 -413 -485 -163 -75 -47 -70 -1638
-70 -1588 0 -1475 -5 -1635 69 -95 44 -149 82 -223 156 -305 305 -290 806 33
1097 94 85 290 183 365 183 12 0 25 -23 45 -85 54 -167 213 -385 280 -385 34
1 56 15 74 48 19 35 7 65 -52 131 -210 237 -254 594 -105 861 161 289 499 447
822 386z m-1441 -3500 c67 -27 115 -115 102 -184 -36 -195 -304 -195 -340 0
-13 68 35 156 100 184 39 17 97 17 138 0z m3810 0 c67 -27 115 -115 102 -184
-16 -88 -84 -146 -170 -146 -149 0 -225 169 -127 286 46 55 126 73 195 44z
m-1944 -296 c67 -19 121 -90 121 -160 0 -82 -51 -149 -131 -170 -151 -41 -272
129 -185 260 43 66 118 92 195 70z"/>
</g>
</svg>
